<?xml version="1.0" encoding="UTF-8" standalone="no"?>
<svg
        width="800px"
        height="800px"
        viewBox="-6.5 0 65 65"
        version="1.1"
        xmlns="http://www.w3.org/2000/svg">
    <g
            stroke="none"
            stroke-width="1"
            fill="none">
        <g
                transform="translate(-3.5952109,1.7776511)"
                stroke="#6b6c6e"
                stroke-width="2">
            <path
                    d="m 7.3,51.7 c 2.2,0 11.7,-1.8 20.3,-10.2 0.8,-0.8 -3.9,-1.8 -3.2,-2.7 0.8,-0.9 7.1,-1.6 7.8,-2.5 2.8,-3.5 5.3,-7 7.4,-10.4 0.6,-0.9 -5.8,0.7 -5.3,-0.2 0.5,-0.9 7.9,-4.2 8.3,-5 5.9,-10.7 8.2,-19.4 6.9,-20.6 -1,-1 -9.1,2.1 -13,5.3 -0.8,0.6 -6,10.2 -7,10.6 -0.8,0.3 -0.3,-5.5 2.6,-8.2 -3.8,1.8 -9.1,4.7 -12.7,8 -0.3,0.3 -1,8.3 -1.3,8.7 -0.7,0.7 -0.9,-6.4 -1.5,-5.6 -9,11 -15.4,26.2 -11.8,31.7 0.3,-0.1 0.9,1.1 2.5,1.1 z"
                    style="display:inline;fill:#7cc096;fill-opacity:1"/>
            <path
                    d="m 0,61.9 c 1,-1 15.8,-31 40.4,-50"
                    style="display:inline" />
        </g>
    </g>
</svg>